<?xml version="1.0" encoding="UTF-8" standalone="no"?>
<!DOCTYPE svg PUBLIC "-//W3C//DTD SVG 1.1//EN"
 "http://www.w3.org/Graphics/SVG/1.1/DTD/svg11.dtd">
<!-- Generated by graphviz version 14.0.4 (20251115.1723)
 -->
<!-- Pages: 1 -->
<svg width="1339pt" height="210pt"
 viewBox="0.00 0.00 1339.00 210.00" xmlns="http://www.w3.org/2000/svg" xmlns:xlink="http://www.w3.org/1999/xlink">
<g id="graph0" class="graph" transform="scale(1 1) rotate(0) translate(4 206)">
<polygon fill="white" stroke="none" points="-4,4 -4,-206 1334.88,-206 1334.88,4 -4,4"/>
<!-- 2559853164560 -->
<g id="node1" class="node">
<title>2559853164560</title>
<polygon fill="none" stroke="black" points="580.75,-55.5 580.75,-91.5 741.75,-91.5 741.75,-55.5 580.75,-55.5"/>
<text xml:space="preserve" text-anchor="middle" x="620.62" y="-68.7" font-family="Times New Roman,serif" font-size="14.00">data 0.2355</text>
<polyline fill="none" stroke="black" points="660.5,-56 660.5,-91.5"/>
<text xml:space="preserve" text-anchor="middle" x="701.12" y="-68.7" font-family="Times New Roman,serif" font-size="14.00">grad 1.0000</text>
</g>
<!-- 2559853275984+ -->
<g id="node12" class="node">
<title>2559853275984+</title>
<ellipse fill="none" stroke="black" cx="807" cy="-100.5" rx="27" ry="18"/>
<text xml:space="preserve" text-anchor="middle" x="807" y="-95.45" font-family="Times New Roman,serif" font-size="14.00">+</text>
</g>
<!-- 2559853164560&#45;&gt;2559853275984+ -->
<g id="edge7" class="edge">
<title>2559853164560&#45;&gt;2559853275984+</title>
<path fill="none" stroke="black" d="M742.11,-88.5C751.6,-90.28 760.9,-92.03 769.34,-93.61"/>
<polygon fill="black" stroke="black" points="768.66,-97.05 779.14,-95.45 769.96,-90.17 768.66,-97.05"/>
</g>
<!-- 2559853164560+ -->
<g id="node2" class="node">
<title>2559853164560+</title>
<ellipse fill="none" stroke="black" cx="515.5" cy="-73.5" rx="27" ry="18"/>
<text xml:space="preserve" text-anchor="middle" x="515.5" y="-68.45" font-family="Times New Roman,serif" font-size="14.00">+</text>
</g>
<!-- 2559853164560+&#45;&gt;2559853164560 -->
<g id="edge1" class="edge">
<title>2559853164560+&#45;&gt;2559853164560</title>
<path fill="none" stroke="black" d="M542.87,-73.5C550.67,-73.5 559.7,-73.5 569.2,-73.5"/>
<polygon fill="black" stroke="black" points="569.02,-77 579.02,-73.5 569.02,-70 569.02,-77"/>
</g>
<!-- 2559852769872 -->
<g id="node3" class="node">
<title>2559852769872</title>
<polygon fill="none" stroke="black" points="0,-83.5 0,-119.5 161,-119.5 161,-83.5 0,-83.5"/>
<text xml:space="preserve" text-anchor="middle" x="39.88" y="-96.7" font-family="Times New Roman,serif" font-size="14.00">data 0.2355</text>
<polyline fill="none" stroke="black" points="79.75,-84 79.75,-119.5"/>
<text xml:space="preserve" text-anchor="middle" x="120.38" y="-96.7" font-family="Times New Roman,serif" font-size="14.00">grad 1.0000</text>
</g>
<!-- 2559853163216* -->
<g id="node6" class="node">
<title>2559853163216*</title>
<ellipse fill="none" stroke="black" cx="224" cy="-73.5" rx="27" ry="18"/>
<text xml:space="preserve" text-anchor="middle" x="224" y="-68.45" font-family="Times New Roman,serif" font-size="14.00">*</text>
</g>
<!-- 2559852769872&#45;&gt;2559853163216* -->
<g id="edge10" class="edge">
<title>2559852769872&#45;&gt;2559853163216*</title>
<path fill="none" stroke="black" d="M161.35,-85.7C170.09,-83.97 178.64,-82.28 186.46,-80.73"/>
<polygon fill="black" stroke="black" points="187.08,-84.18 196.21,-78.8 185.72,-77.31 187.08,-84.18"/>
</g>
<!-- 2559853349456 -->
<g id="node4" class="node">
<title>2559853349456</title>
<polygon fill="none" stroke="black" points="287,-165.5 287,-201.5 452.5,-201.5 452.5,-165.5 287,-165.5"/>
<text xml:space="preserve" text-anchor="middle" x="326.88" y="-178.7" font-family="Times New Roman,serif" font-size="14.00">data 0.0665</text>
<polyline fill="none" stroke="black" points="366.75,-166 366.75,-201.5"/>
<text xml:space="preserve" text-anchor="middle" x="409.62" y="-178.7" font-family="Times New Roman,serif" font-size="14.00">grad &#45;2.0000</text>
</g>
<!-- 2559853272400* -->
<g id="node15" class="node">
<title>2559853272400*</title>
<ellipse fill="none" stroke="black" cx="515.5" cy="-128.5" rx="27" ry="18"/>
<text xml:space="preserve" text-anchor="middle" x="515.5" y="-123.45" font-family="Times New Roman,serif" font-size="14.00">*</text>
</g>
<!-- 2559853349456&#45;&gt;2559853272400* -->
<g id="edge11" class="edge">
<title>2559853349456&#45;&gt;2559853272400*</title>
<path fill="none" stroke="black" d="M429.08,-165.07C436.99,-162.33 444.98,-159.43 452.5,-156.5 462.41,-152.64 473.03,-148.02 482.62,-143.67"/>
<polygon fill="black" stroke="black" points="483.94,-146.92 491.56,-139.55 481.01,-140.56 483.94,-146.92"/>
</g>
<!-- 2559853163216 -->
<g id="node5" class="node">
<title>2559853163216</title>
<polygon fill="none" stroke="black" points="289.25,-55.5 289.25,-91.5 450.25,-91.5 450.25,-55.5 289.25,-55.5"/>
<text xml:space="preserve" text-anchor="middle" x="329.12" y="-68.7" font-family="Times New Roman,serif" font-size="14.00">data 0.2355</text>
<polyline fill="none" stroke="black" points="369,-56 369,-91.5"/>
<text xml:space="preserve" text-anchor="middle" x="409.62" y="-68.7" font-family="Times New Roman,serif" font-size="14.00">grad 1.0000</text>
</g>
<!-- 2559853163216&#45;&gt;2559853164560+ -->
<g id="edge12" class="edge">
<title>2559853163216&#45;&gt;2559853164560+</title>
<path fill="none" stroke="black" d="M450.61,-73.5C459.73,-73.5 468.67,-73.5 476.85,-73.5"/>
<polygon fill="black" stroke="black" points="476.69,-77 486.69,-73.5 476.69,-70 476.69,-77"/>
</g>
<!-- 2559853163216*&#45;&gt;2559853163216 -->
<g id="edge2" class="edge">
<title>2559853163216*&#45;&gt;2559853163216</title>
<path fill="none" stroke="black" d="M251.37,-73.5C259.17,-73.5 268.2,-73.5 277.7,-73.5"/>
<polygon fill="black" stroke="black" points="277.52,-77 287.52,-73.5 277.52,-70 277.52,-77"/>
</g>
<!-- 2559859701456 -->
<g id="node7" class="node">
<title>2559859701456</title>
<polygon fill="none" stroke="black" points="287,-110.5 287,-146.5 452.5,-146.5 452.5,-110.5 287,-110.5"/>
<text xml:space="preserve" text-anchor="middle" x="329.12" y="-123.7" font-family="Times New Roman,serif" font-size="14.00">data &#45;2.0000</text>
<polyline fill="none" stroke="black" points="371.25,-111 371.25,-146.5"/>
<text xml:space="preserve" text-anchor="middle" x="411.88" y="-123.7" font-family="Times New Roman,serif" font-size="14.00">grad 0.0665</text>
</g>
<!-- 2559859701456&#45;&gt;2559853272400* -->
<g id="edge13" class="edge">
<title>2559859701456&#45;&gt;2559853272400*</title>
<path fill="none" stroke="black" d="M452.7,-128.5C461.14,-128.5 469.4,-128.5 476.98,-128.5"/>
<polygon fill="black" stroke="black" points="476.77,-132 486.77,-128.5 476.77,-125 476.77,-132"/>
</g>
<!-- 2559853164304 -->
<g id="node8" class="node">
<title>2559853164304</title>
<polygon fill="none" stroke="black" points="289.25,-0.5 289.25,-36.5 450.25,-36.5 450.25,-0.5 289.25,-0.5"/>
<text xml:space="preserve" text-anchor="middle" x="329.12" y="-13.7" font-family="Times New Roman,serif" font-size="14.00">data 0.0000</text>
<polyline fill="none" stroke="black" points="369,-1 369,-36.5"/>
<text xml:space="preserve" text-anchor="middle" x="409.62" y="-13.7" font-family="Times New Roman,serif" font-size="14.00">grad 1.0000</text>
</g>
<!-- 2559853164304&#45;&gt;2559853164560+ -->
<g id="edge9" class="edge">
<title>2559853164304&#45;&gt;2559853164560+</title>
<path fill="none" stroke="black" d="M426.38,-36.88C435.16,-39.97 444.11,-43.24 452.5,-46.5 462.28,-50.3 472.79,-54.73 482.32,-58.9"/>
<polygon fill="black" stroke="black" points="480.64,-61.98 491.2,-62.83 483.47,-55.58 480.64,-61.98"/>
</g>
<!-- 2559859319120 -->
<g id="node9" class="node">
<title>2559859319120</title>
<polygon fill="none" stroke="black" points="1169.88,-82.5 1169.88,-118.5 1330.88,-118.5 1330.88,-82.5 1169.88,-82.5"/>
<text xml:space="preserve" text-anchor="middle" x="1209.75" y="-95.7" font-family="Times New Roman,serif" font-size="14.00">data 0.1024</text>
<polyline fill="none" stroke="black" points="1249.63,-83 1249.63,-118.5"/>
<text xml:space="preserve" text-anchor="middle" x="1290.25" y="-95.7" font-family="Times New Roman,serif" font-size="14.00">grad 1.0000</text>
</g>
<!-- 2559859319120ReLU -->
<g id="node10" class="node">
<title>2559859319120ReLU</title>
<ellipse fill="none" stroke="black" cx="1100.44" cy="-100.5" rx="33.44" ry="18"/>
<text xml:space="preserve" text-anchor="middle" x="1100.44" y="-95.45" font-family="Times New Roman,serif" font-size="14.00">ReLU</text>
</g>
<!-- 2559859319120ReLU&#45;&gt;2559859319120 -->
<g id="edge3" class="edge">
<title>2559859319120ReLU&#45;&gt;2559859319120</title>
<path fill="none" stroke="black" d="M1134.27,-100.5C1141.61,-100.5 1149.74,-100.5 1158.19,-100.5"/>
<polygon fill="black" stroke="black" points="1157.93,-104 1167.93,-100.5 1157.93,-97 1157.93,-104"/>
</g>
<!-- 2559853275984 -->
<g id="node11" class="node">
<title>2559853275984</title>
<polygon fill="none" stroke="black" points="870,-82.5 870,-118.5 1031,-118.5 1031,-82.5 870,-82.5"/>
<text xml:space="preserve" text-anchor="middle" x="909.88" y="-95.7" font-family="Times New Roman,serif" font-size="14.00">data 0.1024</text>
<polyline fill="none" stroke="black" points="949.75,-83 949.75,-118.5"/>
<text xml:space="preserve" text-anchor="middle" x="990.38" y="-95.7" font-family="Times New Roman,serif" font-size="14.00">grad 1.0000</text>
</g>
<!-- 2559853275984&#45;&gt;2559859319120ReLU -->
<g id="edge14" class="edge">
<title>2559853275984&#45;&gt;2559859319120ReLU</title>
<path fill="none" stroke="black" d="M1031.1,-100.5C1039.46,-100.5 1047.72,-100.5 1055.45,-100.5"/>
<polygon fill="black" stroke="black" points="1055.21,-104 1065.21,-100.5 1055.21,-97 1055.21,-104"/>
</g>
<!-- 2559853275984+&#45;&gt;2559853275984 -->
<g id="edge4" class="edge">
<title>2559853275984+&#45;&gt;2559853275984</title>
<path fill="none" stroke="black" d="M834.28,-100.5C841.4,-100.5 849.52,-100.5 858.08,-100.5"/>
<polygon fill="black" stroke="black" points="858.04,-104 868.04,-100.5 858.04,-97 858.04,-104"/>
</g>
<!-- 2559859112784 -->
<g id="node13" class="node">
<title>2559859112784</title>
<polygon fill="none" stroke="black" points="0,-28.5 0,-64.5 161,-64.5 161,-28.5 0,-28.5"/>
<text xml:space="preserve" text-anchor="middle" x="39.88" y="-41.7" font-family="Times New Roman,serif" font-size="14.00">data 1.0000</text>
<polyline fill="none" stroke="black" points="79.75,-29 79.75,-64.5"/>
<text xml:space="preserve" text-anchor="middle" x="120.38" y="-41.7" font-family="Times New Roman,serif" font-size="14.00">grad 0.2355</text>
</g>
<!-- 2559859112784&#45;&gt;2559853163216* -->
<g id="edge6" class="edge">
<title>2559859112784&#45;&gt;2559853163216*</title>
<path fill="none" stroke="black" d="M161.35,-61.74C170.09,-63.4 178.64,-65.04 186.46,-66.53"/>
<polygon fill="black" stroke="black" points="185.73,-69.95 196.21,-68.39 187.04,-63.08 185.73,-69.95"/>
</g>
<!-- 2559853272400 -->
<g id="node14" class="node">
<title>2559853272400</title>
<polygon fill="none" stroke="black" points="578.5,-110.5 578.5,-146.5 744,-146.5 744,-110.5 578.5,-110.5"/>
<text xml:space="preserve" text-anchor="middle" x="620.62" y="-123.7" font-family="Times New Roman,serif" font-size="14.00">data &#45;0.1331</text>
<polyline fill="none" stroke="black" points="662.75,-111 662.75,-146.5"/>
<text xml:space="preserve" text-anchor="middle" x="703.38" y="-123.7" font-family="Times New Roman,serif" font-size="14.00">grad 1.0000</text>
</g>
<!-- 2559853272400&#45;&gt;2559853275984+ -->
<g id="edge8" class="edge">
<title>2559853272400&#45;&gt;2559853275984+</title>
<path fill="none" stroke="black" d="M744.2,-112.54C753,-110.82 761.58,-109.15 769.42,-107.62"/>
<polygon fill="black" stroke="black" points="770.05,-111.07 779.2,-105.72 768.71,-104.2 770.05,-111.07"/>
</g>
<!-- 2559853272400*&#45;&gt;2559853272400 -->
<g id="edge5" class="edge">
<title>2559853272400*&#45;&gt;2559853272400</title>
<path fill="none" stroke="black" d="M542.87,-128.5C549.97,-128.5 558.07,-128.5 566.64,-128.5"/>
<polygon fill="black" stroke="black" points="566.59,-132 576.59,-128.5 566.59,-125 566.59,-132"/>
</g>
</g>
</svg>
